# xmcd CD database file
#
# Track frame offsets:
#	150
#	11543
#	21187
#	31261
#	44020
#	54662
#	65101
#	75853
#	87531
#	97983
#	107096
#	119667
#	131426
#	142702
#	153370
#	165384
#	176804
#	189640
#	201006
#	212943
#
# Disc length: 3032 seconds
#
# Revision: 1
# Processed by: cddbd v1.5.2PL0 Copyright (c) Steve Scherf et al.
# Submitted via: jetAudio 7
#
DISCID=110bd614
DTITLE=Jerry Reed - Smell The Flowers and Jerry Reed
DYEAR=1900
DGENRE=Country
TTITLE0=Smell The Flowers
TTITLE1=Don't Get Heavy
TTITLE2=Endless Miles Of Highway
TTITLE3=Take It Easy (In Your Mind)
TTITLE4=It Don't Work That Way
TTITLE5=If I Ever (Love Again)
TTITLE6=My Guitar And My Song
TTITLE7=Don't Let The Good Life Pass You By
TTITLE8=It Ain't Home, But It Ain't Bad
TTITLE9=Pave Your Way Into Tomorrow
TTITLE10=500 Miles Away From Home
TTITLE11=Almost Crazy
TTITLE12=You Made My Life A Song
TTITLE13=You're Young And You'll Forget
TTITLE14=Alabama Wild Man
TTITLE15=Misery Loves Company
TTITLE16=Time For Love
TTITLE17=Sunshine Day
TTITLE18=Huggin' And Chalkin'
TTITLE19=Careless Love
EXTD=
EXTT0=
EXTT1=
EXTT2=
EXTT3=
EXTT4=
EXTT5=
EXTT6=
EXTT7=
EXTT8=
EXTT9=
EXTT10=
EXTT11=
EXTT12=
EXTT13=
EXTT14=
EXTT15=
EXTT16=
EXTT17=
EXTT18=
EXTT19=
PLAYORDER=
